<?xml version="1.0" standalone="no"?>
<!DOCTYPE svg PUBLIC "-//W3C//DTD SVG 20010904//EN"
 "http://www.w3.org/TR/2001/REC-SVG-20010904/DTD/svg10.dtd">
<svg version="1.0" xmlns="http://www.w3.org/2000/svg"
 width="64.000000pt" height="64.000000pt" viewBox="0 0 64.000000 64.000000"
 preserveAspectRatio="xMidYMid meet">

<g transform="translate(0.000000,64.000000) scale(0.100000,-0.100000)"
fill="#000000" stroke="none">
<path d="M478 563 c6 -2 18 -2 25 0 6 3 1 5 -13 5 -14 0 -19 -2 -12 -5z"/>
<path d="M52 458 c-8 -8 -12 -56 -12 -150 l0 -138 270 0 c263 0 270 0 270 20
0 19 -7 20 -100 20 l-100 0 0 130 0 130 -158 0 c-110 0 -162 -4 -170 -12z
m113 -79 c4 -6 -3 -21 -16 -35 l-22 -24 23 -25 c19 -20 21 -28 12 -37 -10 -10
-20 -4 -49 25 l-37 37 34 35 c36 37 45 41 55 24z m89 2 c6 -9 -30 -108 -46
-125 -5 -6 -12 -6 -18 0 -7 7 -5 23 6 50 9 21 20 49 25 62 9 23 24 29 33 13z
m76 -26 l34 -35 -37 -37 c-29 -29 -39 -35 -49 -25 -9 9 -7 17 12 37 l23 25
-22 24 c-21 22 -22 46 -2 46 4 0 22 -16 41 -35z"/>
</g>
</svg>
